<?xml version="1.0" ?><svg fill="none" height="64" viewBox="0 0 64 64" width="64" xmlns="http://www.w3.org/2000/svg"><path clip-rule="evenodd" d="M32 22.5C28.0415 22.5 23.7233 24.7207 20.572 26.7364C18.9575 27.7691 17.5722 28.7992 16.5907 29.5707C16.0991 29.957 15.7069 30.2801 15.4355 30.5082C15.2998 30.6223 15.1943 30.7128 15.1215 30.7758C15.0852 30.8072 15.057 30.8318 15.0373 30.849L15.0143 30.8693L15.0077 30.8752L15.0049 30.8776C14.6841 31.1623 14.5 31.5711 14.5 32C14.5 32.4289 14.6836 32.8372 15.0043 33.1219L16 32C15.0043 33.1219 15.0056 33.123 15.0056 33.123L15.0077 33.1248L15.0143 33.1307L15.0373 33.151C15.057 33.1682 15.0852 33.1928 15.1215 33.2242C15.1943 33.2872 15.2998 33.3777 15.4355 33.4918C15.7069 33.7199 16.0991 34.043 16.5907 34.4293C17.5722 35.2008 18.9575 36.2309 20.572 37.2636C23.7233 39.2793 28.0415 41.5 32 41.5C35.9585 41.5 40.2767 39.2793 43.428 37.2636C45.0425 36.2309 46.4278 35.2008 47.4093 34.4293C47.9009 34.043 48.2931 33.7199 48.5645 33.4918C48.7002 33.3777 48.8057 33.2872 48.8785 33.2242C48.9148 33.1928 48.943 33.1682 48.9627 33.151L48.9857 33.1307L48.9923 33.1248L48.9951 33.1224C49.3159 32.8377 49.5 32.4289 49.5 32C49.5 31.5711 49.3164 31.1628 48.9957 30.8781L48 32C48.9957 30.8781 48.9944 30.877 48.9944 30.877L48.9923 30.8752L48.9857 30.8693L48.9627 30.849C48.943 30.8318 48.9148 30.8072 48.8785 30.7758C48.8057 30.7128 48.7002 30.6223 48.5645 30.5082C48.2931 30.2801 47.9009 29.957 47.4093 29.5707C46.4278 28.7992 45.0425 27.7691 43.428 26.7364C40.2767 24.7207 35.9585 22.5 32 22.5ZM48 32L48.9951 33.1224C48.9951 33.1224 48.9957 33.1219 48 32ZM16 32L15.0049 30.8776C15.0049 30.8776 15.0043 30.8781 16 32ZM18.4445 32.0707L18.3548 32L18.4445 31.9293C19.3715 31.2008 20.6763 30.2309 22.1885 29.2636C23.9697 28.1243 25.9419 27.0526 27.8715 26.3465C26.1307 27.6199 25 29.6779 25 32C25 34.3221 26.1307 36.3801 27.8715 37.6535C25.9419 36.9474 23.9697 35.8757 22.1885 34.7364C20.6763 33.7691 19.3715 32.7992 18.4445 32.0707ZM36.1285 37.6535C38.0581 36.9474 40.0303 35.8757 41.8115 34.7364C43.3237 33.7691 44.6285 32.7992 45.5555 32.0707L45.6452 32L45.5555 31.9293C44.6285 31.2008 43.3237 30.2309 41.8115 29.2636C40.0303 28.1243 38.0581 27.0526 36.1285 26.3465C37.8693 27.6199 39 29.6779 39 32C39 34.3221 37.8693 36.3801 36.1285 37.6535ZM36 32C36 34.2091 34.2091 36 32 36C29.7909 36 28 34.2091 28 32C28 29.7909 29.7909 28 32 28C34.2091 28 36 29.7909 36 32Z" fill="#FFFFFF" fill-rule="evenodd"/></svg>